<svg xmlns="http://www.w3.org/2000/svg" viewBox="0 0 32 32"><g data-name="33-Video-Mp4"><path d="M31 6h-3a1 1 0 0 0-.71.29L25.59 8H24V7a3 3 0 0 0-3-3H3a3 3 0 0 0-3 3v10h2V7a1 1 0 0 1 1-1h18a1 1 0 0 1 1 1v10h2v-7h2a1 1 0 0 0 .71-.29L28.41 8H30v14h-2v2h3a1 1 0 0 0 1-1V7a1 1 0 0 0-1-1z"/><path d="M14 19h-4a1 1 0 0 0-1 1v9h2v-3h3a2 2 0 0 0 2-2v-3a2 2 0 0 0-2-2zm0 5h-3v-3h3zM7.38 19.08a1 1 0 0 0-1.09.22L4 21.59l-2.29-2.3A1 1 0 0 0 0 20v9h2v-6.59l1.29 1.29a1 1 0 0 0 1.41 0L6 22.41V29h2v-9a1 1 0 0 0-.62-.92zM23 19h-2v5h-2v-5h-2v6a1 1 0 0 0 1 1h3v3h2v-3h1v-2h-1z"/><rect x="5" y="9" width="14" height="6" rx="1" ry="1"/></g></svg>
