<svg xmlns="http://www.w3.org/2000/svg" width="48" height="48"><g data-name="12-Zip-File"><path d="M45 13h-8a4 4 0 0 1-4-4V1z" style="fill:#f6b445"/><path d="M45 13v30a4 4 0 0 1-4 4H7c-4 0-4-4-4-4V5a4 4 0 0 1 4-4h26v8a4 4 0 0 0 4 4h8z" style="fill:#fed049"/><g data-name="&lt;Group&gt;"><path d="M13 28h6v2a1.959 1.959 0 0 1-2 2h-2a1.959 1.959 0 0 1-2-2z" style="fill:#a4b0c0"/><path d="M19 25v3h-6v-5h4a1.959 1.959 0 0 1 2 2z" style="fill:#d0d7df"/><path d="m45.707 12.293-12-12A1.009 1.009 0 0 0 33 0H20a1 1 0 0 0 0 2h12v7a5.006 5.006 0 0 0 5 5h2a1 1 0 0 0 0-2h-2a3 3 0 0 1-3-3V3.414l10 10V43a3 3 0 0 1-3 3H7a2.852 2.852 0 0 1-3-3V5a3 3 0 0 1 3-3h7v2c0 .5-.211.722-.689 1.176A3.385 3.385 0 0 0 12 7.8a3.387 3.387 0 0 0 1.314 2.627c.476.45.686.671.686 1.163s-.211.722-.689 1.176a3.284 3.284 0 0 0 0 5.248c.48.457.692.679.692 1.186s-.211.721-.688 1.175A3.383 3.383 0 0 0 12 23v7a2.916 2.916 0 0 0 3 3h2a2.916 2.916 0 0 0 3-3v-5a2.916 2.916 0 0 0-3-3 1 1 0 0 0 0 2 .915.915 0 0 1 1 1v2h-4v-4c0-.5.211-.722.689-1.176a3.292 3.292 0 0 0 0-5.259c-.477-.454-.688-.676-.688-1.175s.211-.721.688-1.175a3.273 3.273 0 0 0 0-5.24C14.211 8.521 14 8.3 14 7.8s.211-.721.688-1.175A3.383 3.383 0 0 0 16 4V1a1 1 0 0 0-1-1H7a5.006 5.006 0 0 0-5 5v38a4.821 4.821 0 0 0 5 5h34a5.006 5.006 0 0 0 5-5V13a1 1 0 0 0-.293-.707zM18 29v1a.915.915 0 0 1-1 1h-2a.915.915 0 0 1-1-1v-1z" style="fill:#474c54"/></g></g></svg>
